<?xml version="1.0" encoding="utf-8"?>
<!-- Generator: Adobe Illustrator 16.0.0, SVG Export Plug-In . SVG Version: 6.00 Build 0)  -->
<!DOCTYPE svg PUBLIC "-//W3C//DTD SVG 1.1//EN" "http://www.w3.org/Graphics/SVG/1.1/DTD/svg11.dtd">
<svg version="1.1" id="Calque_1" xmlns="http://www.w3.org/2000/svg" xmlns:xlink="http://www.w3.org/1999/xlink" x="0px" y="0px"
	 width="596.917px" height="189.618px" viewBox="0 0 596.917 189.618" enable-background="new 0 0 596.917 189.618"
	 xml:space="preserve">
<g>
	<defs>
		<filter id="Adobe_OpacityMaskFilter" filterUnits="userSpaceOnUse" x="16.025" y="35.237" width="106.46" height="106.462">
			<feColorMatrix  type="matrix" values="1 0 0 0 0  0 1 0 0 0  0 0 1 0 0  0 0 0 1 0"/>
		</filter>
	</defs>
	<mask maskUnits="userSpaceOnUse" x="16.025" y="35.237" width="106.46" height="106.462" id="SVGID_1_">
		<g filter="url(#Adobe_OpacityMaskFilter)">
			
				<radialGradient id="SVGID_2_" cx="312.062" cy="-93.4888" r="53.7563" gradientTransform="matrix(1 0 0 1 -243.332 181.9536)" gradientUnits="userSpaceOnUse">
				<stop  offset="0.816" style="stop-color:#FFFFFF"/>
				<stop  offset="0.9717" style="stop-color:#000000"/>
			</radialGradient>
			<path fill="url(#SVGID_2_)" d="M122.486,88.467c0,29.693-24.069,53.754-53.759,53.754c-29.69,0-53.752-24.062-53.752-53.754
				c0-29.688,24.062-53.76,53.752-53.76C98.417,34.708,122.486,58.779,122.486,88.467z"/>
		</g>
	</mask>
	<path mask="url(#SVGID_1_)" fill="#2D98C6" d="M122.486,88.467c0,29.402-23.837,53.232-53.229,53.232
		c-29.402,0-53.231-23.83-53.231-53.232c0-29.398,23.829-53.23,53.231-53.23C98.648,35.237,122.486,59.069,122.486,88.467z"/>
	<defs>
		<filter id="Adobe_OpacityMaskFilter_1_" filterUnits="userSpaceOnUse" x="20.484" y="39.693" width="97.545" height="97.551">
			<feFlood  style="flood-color:white;flood-opacity:1" result="back"/>
			<feBlend  in="SourceGraphic" in2="back" mode="normal"/>
		</filter>
	</defs>
	<mask maskUnits="userSpaceOnUse" x="20.484" y="39.693" width="97.545" height="97.551" id="SVGID_3_">
		<g filter="url(#Adobe_OpacityMaskFilter_1_)">
			<defs>
				<filter id="Adobe_OpacityMaskFilter_2_" filterUnits="userSpaceOnUse" x="20.484" y="39.693" width="97.545" height="97.551">
					<feFlood  style="flood-color:white;flood-opacity:1" result="back"/>
					<feBlend  in="SourceGraphic" in2="back" mode="normal"/>
				</filter>
			</defs>
			<mask maskUnits="userSpaceOnUse" x="20.484" y="39.693" width="97.545" height="97.551" id="SVGID_3_">
				<g filter="url(#Adobe_OpacityMaskFilter_2_)">
				</g>
			</mask>
			
				<radialGradient id="SVGID_4_" cx="312.5884" cy="-92.8267" r="48.5888" fx="312.5816" fy="-92.37" gradientTransform="matrix(1 0 0 1 -243.332 181.9536)" gradientUnits="userSpaceOnUse">
				<stop  offset="0" style="stop-color:#FFFFFF"/>
				<stop  offset="0.1984" style="stop-color:#F8F8F8"/>
				<stop  offset="0.4822" style="stop-color:#E5E5E5"/>
				<stop  offset="0.8158" style="stop-color:#C7C7C7"/>
				<stop  offset="1" style="stop-color:#B3B3B3"/>
			</radialGradient>
			<path mask="url(#SVGID_3_)" fill="url(#SVGID_4_)" d="M118.029,88.467c0,26.935-21.838,48.777-48.772,48.777
				c-26.942,0-48.772-21.842-48.772-48.777s21.831-48.774,48.772-48.774C96.191,39.693,118.029,61.533,118.029,88.467z"/>
		</g>
	</mask>
	
		<radialGradient id="SVGID_5_" cx="312.5884" cy="-92.8267" r="48.5888" fx="312.5816" fy="-92.37" gradientTransform="matrix(1 0 0 1 -243.332 181.9536)" gradientUnits="userSpaceOnUse">
		<stop  offset="0" style="stop-color:#95C4E1"/>
		<stop  offset="0.115" style="stop-color:#8EBCD8"/>
		<stop  offset="0.2797" style="stop-color:#7AA6C1"/>
		<stop  offset="0.4743" style="stop-color:#5B869F"/>
		<stop  offset="0.6917" style="stop-color:#375F74"/>
		<stop  offset="0.9253" style="stop-color:#0F3646"/>
		<stop  offset="1" style="stop-color:#012A38"/>
	</radialGradient>
	<path fill="url(#SVGID_5_)" d="M118.029,88.467c0,26.935-21.838,48.777-48.772,48.777c-26.942,0-48.772-21.842-48.772-48.777
		s21.831-48.774,48.772-48.774C96.191,39.693,118.029,61.533,118.029,88.467z"/>
	<g>
		<path fill="#264659" d="M237.939,159.186l-5.081-50.305l-22.612,50.305h-3.864l-23.614-50.305l-4.293,50.305h-7.371l6.369-66.406
			h11.95l21.968,46.727l20.895-46.727h11.664l6.941,66.406H237.939z"/>
		<path fill="#264659" d="M295.817,159.186h-29.534v-51.671h28.525l-0.504,5.268l-18.045,0.224v16.813l16.98,0.224l-0.448,4.764
			l-16.532,0.392v18.495l20.007,0.393L295.817,159.186z"/>
		<path fill="#264659" d="M327.506,159.915c-3.849,0-7.117-0.654-9.808-1.962s-4.876-3.138-6.557-5.492
			c-1.682-2.354-2.905-5.184-3.671-8.49c-0.766-3.307-1.148-6.978-1.148-11.013c0-3.25,0.373-6.155,1.12-8.714
			c0.747-2.559,1.766-4.8,3.055-6.725c1.288-1.924,2.782-3.559,4.483-4.904c1.699-1.345,3.493-2.438,5.38-3.278
			c1.886-0.841,3.819-1.448,5.801-1.821c1.979-0.373,3.903-0.561,5.771-0.561c1.158,0,2.382,0.038,3.671,0.112
			c1.289,0.075,2.541,0.178,3.755,0.308c1.214,0.131,2.345,0.28,3.391,0.448s1.905,0.328,2.578,0.477l-1.85,7.341
			c-0.672-0.224-1.625-0.457-2.858-0.701c-1.232-0.242-2.55-0.476-3.95-0.7c-1.401-0.224-2.784-0.411-4.147-0.561
			c-1.364-0.149-2.494-0.224-3.391-0.224c-1.009,0-1.905,0.028-2.69,0.084c-0.784,0.056-1.504,0.168-2.157,0.336
			c-0.654,0.168-1.271,0.402-1.85,0.7c-0.579,0.3-1.168,0.673-1.765,1.121c-1.533,1.084-2.569,3.138-3.11,6.165
			c-0.542,3.026-0.813,6.8-0.813,11.321c0,6.949,1.027,12.208,3.083,15.776c2.054,3.568,5.36,5.352,9.919,5.352
			c2.578,0,5.269-0.215,8.07-0.645c2.802-0.429,5.343-1.037,7.622-1.821v4.314c-1.271,0.599-2.644,1.131-4.119,1.598
			c-1.477,0.468-2.989,0.859-4.54,1.178c-1.551,0.316-3.119,0.56-4.707,0.729C330.485,159.831,328.963,159.915,327.506,159.915z"/>
		<path fill="#264659" d="M388.449,159.186l-5.772-17.43l-18.493,0.28l-5.94,17.149h-6.333l19.446-51.223l9.695-1.737l18.102,52.96
			H388.449z M381.108,136.881l-7.454-22.305l-7.678,22.305H381.108z"/>
	</g>
	<g>
		<path fill="#264659" d="M420.275,159.225v-58.963l-19.249-0.286l0.644-6.727h50.734l-0.645,6.512l-18.676,0.501v58.963H420.275z"
			/>
		<path fill="#264659" d="M492.965,159.225h-29.534v-51.67h28.525l-0.504,5.268l-18.046,0.224v16.813l16.98,0.224l-0.448,4.764
			l-16.532,0.392v18.494l20.007,0.393L492.965,159.225z"/>
		<path fill="#264659" d="M524.654,159.954c-3.849,0-7.117-0.654-9.808-1.961c-2.69-1.308-4.876-3.139-6.557-5.492
			c-1.682-2.354-2.905-5.184-3.671-8.49c-0.767-3.307-1.149-6.978-1.149-11.013c0-3.25,0.373-6.155,1.121-8.714
			c0.747-2.559,1.766-4.8,3.055-6.725c1.289-1.924,2.782-3.559,4.483-4.904c1.699-1.345,3.493-2.438,5.38-3.278
			c1.886-0.841,3.819-1.448,5.801-1.821c1.979-0.373,3.903-0.561,5.771-0.561c1.158,0,2.382,0.038,3.671,0.112
			c1.289,0.075,2.541,0.178,3.755,0.308c1.214,0.131,2.345,0.28,3.391,0.448s1.905,0.328,2.578,0.477l-1.85,7.341
			c-0.672-0.224-1.625-0.457-2.858-0.701c-1.232-0.242-2.55-0.476-3.95-0.7c-1.401-0.224-2.784-0.411-4.147-0.561
			c-1.364-0.149-2.494-0.224-3.391-0.224c-1.009,0-1.905,0.028-2.69,0.084c-0.784,0.056-1.504,0.168-2.157,0.336
			c-0.654,0.168-1.271,0.402-1.85,0.7c-0.579,0.3-1.168,0.673-1.765,1.121c-1.533,1.084-2.569,3.138-3.11,6.165
			c-0.542,3.026-0.813,6.8-0.813,11.321c0,6.949,1.027,12.208,3.083,15.776c2.054,3.569,5.36,5.352,9.919,5.352
			c2.578,0,5.269-0.215,8.07-0.645s5.343-1.037,7.622-1.821v4.315c-1.271,0.598-2.644,1.13-4.119,1.597
			c-1.477,0.468-2.989,0.86-4.54,1.177c-1.551,0.317-3.119,0.561-4.707,0.729C527.632,159.87,526.111,159.954,524.654,159.954z"/>
		<path fill="#264659" d="M586.885,159.225v-23.257h-22.192v23.257h-9.976v-51.67h9.976v22.641h22.192v-22.641h10.032v51.67H586.885
			z"/>
	</g>
	<g opacity="0.51">
		<path fill="#FFFFFF" d="M420.275,159.225v-58.963l-19.249-0.286l0.644-6.727h50.734l-0.645,6.512l-18.676,0.501v58.963H420.275z"
			/>
		<path fill="#FFFFFF" d="M492.965,159.225h-29.534v-51.67h28.525l-0.504,5.268l-18.046,0.224v16.813l16.98,0.224l-0.448,4.764
			l-16.532,0.392v18.494l20.007,0.393L492.965,159.225z"/>
		<path fill="#FFFFFF" d="M524.654,159.954c-3.849,0-7.117-0.654-9.808-1.961c-2.69-1.308-4.876-3.139-6.557-5.492
			c-1.682-2.354-2.905-5.184-3.671-8.49c-0.767-3.307-1.149-6.978-1.149-11.013c0-3.25,0.373-6.155,1.121-8.714
			c0.747-2.559,1.766-4.8,3.055-6.725c1.289-1.924,2.782-3.559,4.483-4.904c1.699-1.345,3.493-2.438,5.38-3.278
			c1.886-0.841,3.819-1.448,5.801-1.821c1.979-0.373,3.903-0.561,5.771-0.561c1.158,0,2.382,0.038,3.671,0.112
			c1.289,0.075,2.541,0.178,3.755,0.308c1.214,0.131,2.345,0.28,3.391,0.448s1.905,0.328,2.578,0.477l-1.85,7.341
			c-0.672-0.224-1.625-0.457-2.858-0.701c-1.232-0.242-2.55-0.476-3.95-0.7c-1.401-0.224-2.784-0.411-4.147-0.561
			c-1.364-0.149-2.494-0.224-3.391-0.224c-1.009,0-1.905,0.028-2.69,0.084c-0.784,0.056-1.504,0.168-2.157,0.336
			c-0.654,0.168-1.271,0.402-1.85,0.7c-0.579,0.3-1.168,0.673-1.765,1.121c-1.533,1.084-2.569,3.138-3.11,6.165
			c-0.542,3.026-0.813,6.8-0.813,11.321c0,6.949,1.027,12.208,3.083,15.776c2.054,3.569,5.36,5.352,9.919,5.352
			c2.578,0,5.269-0.215,8.07-0.645s5.343-1.037,7.622-1.821v4.315c-1.271,0.598-2.644,1.13-4.119,1.597
			c-1.477,0.468-2.989,0.86-4.54,1.177c-1.551,0.317-3.119,0.561-4.707,0.729C527.632,159.87,526.111,159.954,524.654,159.954z"/>
		<path fill="#FFFFFF" d="M586.885,159.225v-23.257h-22.192v23.257h-9.976v-51.67h9.976v22.641h22.192v-22.641h10.032v51.67H586.885
			z"/>
	</g>
	<g>
		<path fill="#A4A4A7" d="M183.366,47.412l1.345-0.28c1.308-0.298,2.541-0.681,3.699-1.149c1.158-0.466,2.158-1.157,2.999-2.073
			c0.84-0.915,1.503-2.12,1.989-3.615c0.485-1.494,0.729-3.399,0.729-5.716c0-3.475-0.784-6.005-2.354-7.594
			c-1.569-1.588-3.625-2.382-6.165-2.382c-0.636,0-1.28,0.019-1.934,0.056c-0.654,0.038-1.336,0.112-2.045,0.224v46.459h-9.976
			V19.951c1.045-0.075,2.186-0.149,3.418-0.224c1.233-0.075,2.512-0.14,3.839-0.196c1.326-0.056,2.652-0.093,3.979-0.112
			c1.326-0.018,2.606-0.028,3.839-0.028c3.026,0,5.651,0.346,7.874,1.037c2.223,0.692,4.063,1.672,5.52,2.942
			c1.457,1.271,2.541,2.812,3.25,4.624c0.709,1.813,1.065,3.858,1.065,6.137c0,2.391-0.392,4.633-1.177,6.725
			c-0.785,2.093-1.99,3.923-3.615,5.492c-1.625,1.569-3.699,2.802-6.221,3.699c-2.522,0.896-5.521,1.345-8.995,1.345h-0.448
			L183.366,47.412z"/>
		<path fill="#A4A4A7" d="M263.363,45.338c0,4.072-0.514,7.753-1.541,11.04c-1.028,3.288-2.578,6.1-4.652,8.435
			c-2.073,2.335-4.661,4.128-7.762,5.38c-3.102,1.251-6.707,1.877-10.816,1.877c-4.222,0-7.846-0.636-10.872-1.905
			c-3.026-1.27-5.501-3.073-7.425-5.408c-1.925-2.334-3.344-5.146-4.259-8.435c-0.916-3.287-1.373-6.949-1.373-10.984
			c0-4.035,0.467-7.668,1.401-10.9c0.934-3.231,2.382-5.987,4.343-8.266c1.961-2.279,4.456-4.025,7.481-5.24
			c3.026-1.213,6.613-1.821,10.76-1.821c4.147,0,7.762,0.608,10.844,1.821c3.083,1.215,5.651,2.961,7.706,5.24
			c2.054,2.279,3.595,5.035,4.624,8.266C262.849,37.67,263.363,41.303,263.363,45.338z M252.827,45.338
			c0-3.139-0.271-5.959-0.811-8.462c-0.542-2.503-1.389-4.624-2.545-6.361s-2.629-3.063-4.418-3.979
			c-1.79-0.915-3.915-1.373-6.376-1.373c-2.163,0-4.177,0.233-6.041,0.7c-1.864,0.468-3.337,1.131-4.417,1.99
			c-1.082,0.86-1.874,2.746-2.377,5.66c-0.504,2.914-0.755,6.856-0.755,11.825c0,3.102,0.223,5.912,0.67,8.434
			c0.448,2.522,1.194,4.699,2.237,6.529c1.044,1.831,2.434,3.242,4.167,4.231c1.734,0.99,3.887,1.485,6.46,1.485
			c2.647,0,4.828-0.242,6.543-0.729c1.715-0.485,3.169-1.139,4.363-1.961c0.559-0.373,1.044-1.121,1.454-2.242
			c0.41-1.121,0.755-2.494,1.035-4.119c0.279-1.625,0.484-3.437,0.615-5.436C252.761,49.533,252.827,47.468,252.827,45.338z
			 M241.002,0l9.359,11.713l-2.578,2.69l-9.527-7.79l-9.527,7.79l-2.69-2.69L235.397,0H241.002z"/>
		<path fill="#A4A4A7" d="M276.894,71.342V19.671h9.976v46.291h18.662l-0.504,5.38H276.894z"/>
		<path fill="#A4A4A7" d="M345.907,71.342h-29.535V19.671h28.525l-0.504,5.268l-18.045,0.224v16.813l16.98,0.224l-0.449,4.764
			l-16.531,0.392V65.85l20.006,0.393L345.907,71.342z"/>
	</g>
	
		<linearGradient id="SVGID_6_" gradientUnits="userSpaceOnUse" x1="243.332" y1="-129.6191" x2="309.5679" y2="-129.6191" gradientTransform="matrix(1 0 0 1 -243.332 181.9536)">
		<stop  offset="0.0056" style="stop-color:#A3A3A7"/>
		<stop  offset="0.0363" style="stop-color:#ACACAF"/>
		<stop  offset="0.1036" style="stop-color:#BBBABD"/>
		<stop  offset="0.1874" style="stop-color:#C5C4C7"/>
		<stop  offset="0.3049" style="stop-color:#CBCACC"/>
		<stop  offset="0.6313" style="stop-color:#CCCCCE"/>
		<stop  offset="1" style="stop-color:#D8D8DA"/>
	</linearGradient>
	<path fill="url(#SVGID_6_)" d="M13.535,85.422c0.099-29.039,23.636-52.554,52.702-52.651V19.247H0v66.175H13.535z"/>
	
		<linearGradient id="SVGID_7_" gradientUnits="userSpaceOnUse" x1="315.6099" y1="-129.7441" x2="381.8442" y2="-129.7441" gradientTransform="matrix(1 0 0 1 -243.332 181.9536)">
		<stop  offset="0" style="stop-color:#BFBFC2"/>
		<stop  offset="0.0591" style="stop-color:#ABABAE"/>
		<stop  offset="0.1313" style="stop-color:#9B9B9E"/>
		<stop  offset="0.2214" style="stop-color:#919093"/>
		<stop  offset="0.3477" style="stop-color:#8B8A8D"/>
		<stop  offset="0.6983" style="stop-color:#89888C"/>
		<stop  offset="0.8071" style="stop-color:#87868A"/>
		<stop  offset="0.8738" style="stop-color:#807F82"/>
		<stop  offset="0.929" style="stop-color:#757477"/>
		<stop  offset="0.9778" style="stop-color:#666568"/>
		<stop  offset="1" style="stop-color:#5D5D5F"/>
	</linearGradient>
	<path fill="url(#SVGID_7_)" d="M124.981,85.237c-0.1-28.983-23.643-52.458-52.703-52.554v-13.5h66.234v66.055H124.981z"/>
	
		<linearGradient id="SVGID_8_" gradientUnits="userSpaceOnUse" x1="309.3472" y1="-57.4087" x2="243.3325" y2="-57.4087" gradientTransform="matrix(1 0 0 1 -243.332 181.9536)">
		<stop  offset="0" style="stop-color:#BFBFC2"/>
		<stop  offset="0.0591" style="stop-color:#ABABAE"/>
		<stop  offset="0.1313" style="stop-color:#9B9B9E"/>
		<stop  offset="0.2214" style="stop-color:#919093"/>
		<stop  offset="0.3477" style="stop-color:#8B8A8D"/>
		<stop  offset="0.6983" style="stop-color:#89888C"/>
		<stop  offset="0.8071" style="stop-color:#87868A"/>
		<stop  offset="0.8738" style="stop-color:#807F82"/>
		<stop  offset="0.929" style="stop-color:#757477"/>
		<stop  offset="0.9778" style="stop-color:#666568"/>
		<stop  offset="1" style="stop-color:#5D5D5F"/>
	</linearGradient>
	<path fill="url(#SVGID_8_)" d="M13.491,91.335c0.096,29.147,23.558,52.751,52.524,52.85v13.57H0V91.335H13.491z"/>
	
		<linearGradient id="SVGID_9_" gradientUnits="userSpaceOnUse" x1="315.3911" y1="-57.5278" x2="381.8442" y2="-57.5278" gradientTransform="matrix(1 0 0 1 -243.332 181.9536)">
		<stop  offset="0" style="stop-color:#D8D8DA"/>
		<stop  offset="0.5531" style="stop-color:#CCCCCE"/>
		<stop  offset="0.6831" style="stop-color:#C5C4C7"/>
		<stop  offset="0.8944" style="stop-color:#AFAFB3"/>
		<stop  offset="1" style="stop-color:#A3A3A7"/>
	</linearGradient>
	<path fill="url(#SVGID_9_)" d="M124.932,91.215c-0.095,29.148-23.711,52.752-52.873,52.849v13.574h66.454V91.215H124.932z"/>
	<path fill="#264659" d="M1.857,187.895h4.599v1.723H0v-16.669h1.857V187.895z"/>
	<path fill="#264659" d="M7.963,172.949h8.643v1.722H9.818v4.957h6.589v1.723H9.818v6.545h6.788v1.723H7.963V172.949z"/>
	<path fill="#264659" d="M27.78,189.618h-1.857v-16.669h2.741c1.438,0,2.918,0.046,4.136,0.884c1.236,0.861,1.878,2.322,1.878,3.805
		c0,1.347-0.553,2.718-1.591,3.579c-1.128,0.928-2.566,1.104-3.96,1.104H27.78V189.618z M27.78,180.597h1.238
		c2.055,0,3.802-0.617,3.802-3.006c0-2.719-2.187-2.921-4.355-2.921H27.78V180.597z"/>
	<path fill="#264659" d="M53.255,181.304c0,4.801-3.936,8.601-8.69,8.601c-4.753,0-8.689-3.8-8.689-8.601
		c0-4.774,3.936-8.644,8.689-8.644C49.32,172.661,53.255,176.53,53.255,181.304z M37.733,181.285c0,3.759,3.052,6.896,6.832,6.896
		c3.781,0,6.832-3.138,6.832-6.896c0-3.783-3.006-6.897-6.832-6.897C40.741,174.387,37.733,177.501,37.733,181.285z M44.544,167.043
		l3.494,2.941l-1.284,0.996l-2.21-1.881l-2.189,1.881l-1.261-0.996L44.544,167.043z"/>
	<path fill="#264659" d="M57.309,187.895h4.599v1.723h-6.457v-16.669h1.857V187.895z"/>
	<path fill="#264659" d="M63.414,172.949h8.647v1.722h-6.79v4.957h6.589v1.723h-6.589v6.545h6.79v1.723h-8.647V172.949z"/>
	<path fill="#264659" d="M81.376,172.949h3.139c2.498,0,4.532,0.329,6.5,2.013c1.901,1.635,2.764,3.868,2.764,6.343
		c0,2.433-0.886,4.577-2.72,6.214c-1.991,1.77-3.979,2.1-6.587,2.1h-3.096V172.949z M84.582,187.895
		c2.033,0,3.736-0.289,5.262-1.726c1.37-1.278,2.078-3.029,2.078-4.885c0-1.903-0.729-3.737-2.166-4.999
		c-1.527-1.347-3.208-1.615-5.174-1.615h-1.349v13.225H84.582z"/>
	<path fill="#264659" d="M96.04,172.949h8.645v1.722h-6.788v4.957h6.589v1.723h-6.589v6.545h6.788v1.723H96.04V172.949z"/>
	<path fill="#264659" d="M126.714,176.596c-1.328-1.369-3.161-2.209-5.084-2.209c-3.715,0-6.723,3.227-6.723,6.897
		c0,3.668,3.029,6.896,6.767,6.896c1.88,0,3.713-0.884,5.041-2.212v2.302c-1.437,1.04-3.205,1.634-4.974,1.634
		c-4.709,0-8.689-3.821-8.689-8.555c0-4.776,3.913-8.689,8.689-8.689c1.857,0,3.494,0.531,4.974,1.637V176.596z"/>
	<path fill="#264659" d="M146.068,181.304c0,4.801-3.938,8.601-8.69,8.601c-4.755,0-8.689-3.8-8.689-8.601
		c0-4.774,3.934-8.644,8.689-8.644C142.131,172.661,146.068,176.53,146.068,181.304z M130.546,181.285
		c0,3.759,3.05,6.896,6.832,6.896s6.832-3.138,6.832-6.896c0-3.783-3.006-6.897-6.832-6.897S130.546,177.501,130.546,181.285z"/>
	<path fill="#264659" d="M150.431,172l6.058,13.993L162.569,172l3.383,17.618h-1.903l-2.144-11.275h-0.045l-5.372,11.963
		l-5.352-11.963h-0.042l-2.146,11.275h-1.901L150.431,172z"/>
	<path fill="#264659" d="M169.608,189.618h-1.857v-16.669h2.741c1.438,0,2.92,0.046,4.136,0.884
		c1.238,0.861,1.878,2.322,1.878,3.805c0,1.347-0.553,2.718-1.593,3.579c-1.127,0.928-2.564,1.104-3.957,1.104h-1.349V189.618z
		 M169.608,180.597h1.238c2.057,0,3.802-0.617,3.802-3.006c0-2.719-2.189-2.921-4.355-2.921h-0.686V180.597z"/>
	<path fill="#264659" d="M178.545,172.949h8.645v1.722h-6.789v4.957h6.589v1.723h-6.589v6.545h6.789v1.723h-8.645V172.949z
		 M185.023,167.731l-3.382,3.402l-1.106-0.617l2.631-3.627L185.023,167.731z"/>
	<path fill="#264659" d="M194.446,189.618h-1.857V174.67h-4.024v-1.722h9.948v1.722h-4.067V189.618z"/>
	<path fill="#264659" d="M201.99,189.618h-1.857v-16.669h1.857V189.618z"/>
	<path fill="#264659" d="M209.465,189.618h-1.857V174.67h-4.023v-1.722h9.95v1.722h-4.069V189.618z"/>
	<path fill="#264659" d="M217.009,189.618h-1.857v-16.669h1.857V189.618z"/>
	<path fill="#264659" d="M225.28,185.661l4.753-12.712h2.014l-6.767,17.665l-6.767-17.665h2.013L225.28,185.661z"/>
	<path fill="#264659" d="M235.434,189.618h-1.857v-16.669h1.857V189.618z"/>
	<path fill="#264659" d="M242.91,189.618h-1.859V174.67h-4.023v-1.722h9.952v1.722h-4.069V189.618z"/>
	<path fill="#264659" d="M248.551,172.949h8.645v1.722h-6.788v4.957h6.589v1.723h-6.589v6.545h6.788v1.723h-8.645V172.949z
		 M255.03,167.731l-3.383,3.402l-1.106-0.617l2.631-3.627L255.03,167.731z"/>
	<path fill="#264659" d="M271.508,185.44l5.396-13.353l5.395,13.353l4.375-12.491h2.013l-6.388,17.532l-5.395-13.422l-5.396,13.422
		l-6.39-17.532h2.012L271.508,185.44z"/>
	<path fill="#264659" d="M290.601,184.891l-2.013,4.727h-2.033l7.692-17.465l7.498,17.465h-2.057l-1.968-4.727H290.601z
		 M294.203,176.485l-2.852,6.679h5.637L294.203,176.485z"/>
	<path fill="#264659" d="M305.09,187.895h4.598v1.723h-6.455v-16.669h1.857V187.895z"/>
	<path fill="#264659" d="M313.051,187.895h4.599v1.723h-6.456v-16.669h1.857V187.895z"/>
	<path fill="#264659" d="M335.697,181.304c0,4.801-3.936,8.601-8.688,8.601c-4.755,0-8.688-3.8-8.688-8.601
		c0-4.774,3.934-8.644,8.688-8.644C331.761,172.661,335.697,176.53,335.697,181.304z M320.175,181.285
		c0,3.759,3.05,6.896,6.833,6.896c3.779,0,6.831-3.138,6.831-6.896c0-3.783-3.006-6.897-6.831-6.897
		S320.175,177.501,320.175,181.285z"/>
	<path fill="#264659" d="M338.005,172.239l13.002,13.622v-12.912h1.854v17.421l-12.998-13.596v12.844h-1.857V172.239z"/>
	<path fill="#264659" d="M362.49,172.949h8.646v1.722h-6.789v4.957h6.589v1.723h-6.589v6.545h6.789v1.723h-8.646V172.949z"/>
	<path fill="#264659" d="M374.078,172.239l13.004,13.622v-12.912h1.857v17.421l-13.002-13.596v12.844h-1.859V172.239z"/>
	<path fill="#264659" d="M414.065,181.239c0.044,2.256-0.2,4.111-1.724,5.885c-1.526,1.767-3.847,2.781-6.169,2.781
		c-4.689,0-8.58-3.89-8.58-8.578c0-4.775,3.891-8.666,8.69-8.666c2.917,0,5.286,1.303,7.055,3.604l-1.349,1.259
		c-1.395-1.967-3.273-3.137-5.727-3.137c-3.805,0-6.809,3.204-6.809,6.963c0,1.77,0.705,3.448,1.943,4.711
		c1.215,1.213,2.983,2.12,4.733,2.12c2.894,0,5.945-2.12,5.945-5.22h-4.951v-1.723H414.065z"/>
	<path fill="#264659" d="M416.37,172.949h8.648v1.722h-6.789v4.957h6.589v1.723h-6.589v6.545h6.789v1.723h-8.648V172.949z
		 M422.848,167.731l-3.381,3.402l-1.105-0.617l2.633-3.627L422.848,167.731z"/>
	<path fill="#264659" d="M427.963,172.239l13.001,13.622v-12.912h1.855v17.421l-12.998-13.596v12.844h-1.858V172.239z"/>
	<path fill="#264659" d="M447.87,189.618h-1.859v-16.669h1.859V189.618z"/>
	<path fill="#264659" d="M450.919,172.949h8.648v1.722h-6.789v4.957h6.59v1.723h-6.59v6.545h6.789v1.723h-8.648V172.949z"/>
	<path fill="#264659" d="M471.049,172l6.058,13.993L483.188,172l3.38,17.618h-1.899l-2.146-11.275h-0.042l-5.374,11.963
		l-5.349-11.963h-0.044l-2.146,11.275h-1.902L471.049,172z"/>
	<path fill="#264659" d="M488.37,172.949h8.645v1.722h-6.787v4.957h6.591v1.723h-6.591v6.545h6.787v1.723h-8.645V172.949z
		 M494.846,167.731l-3.382,3.402l-1.104-0.617l2.633-3.627L494.846,167.731z"/>
	<path fill="#264659" d="M512.564,176.596c-1.327-1.369-3.162-2.209-5.084-2.209c-3.717,0-6.723,3.227-6.723,6.897
		c0,3.668,3.026,6.896,6.763,6.896c1.882,0,3.717-0.884,5.044-2.212v2.302c-1.438,1.04-3.208,1.634-4.976,1.634
		c-4.713,0-8.69-3.821-8.69-8.555c0-4.776,3.916-8.689,8.69-8.689c1.857,0,3.494,0.531,4.976,1.637V176.596z"/>
	<path fill="#264659" d="M517.876,184.891l-2.01,4.727h-2.036l7.694-17.465l7.493,17.465h-2.055l-1.969-4.727H517.876z
		 M521.481,176.485l-2.854,6.679h5.639L521.481,176.485z"/>
	<path fill="#264659" d="M530.616,172.239l13.001,13.622v-12.912h1.859v17.421l-13.002-13.596v12.844h-1.858V172.239z"/>
	<path fill="#264659" d="M550.522,189.618h-1.855v-16.669h1.855V189.618z"/>
	<path fill="#264659" d="M566.442,188.271c-1.372,1.04-3.337,1.634-5.018,1.634c-4.753,0-8.69-3.8-8.69-8.601
		c0-4.774,3.938-8.644,8.69-8.644c4.817,0,8.689,3.913,8.689,8.689c0,2.322-0.842,4.2-2.409,5.881l2.497,2.545h-2.367
		L566.442,188.271z M566.42,185.905c1.238-1.305,1.835-2.829,1.835-4.62c0-3.806-3.007-6.897-6.831-6.897
		c-3.827,0-6.831,3.114-6.831,6.897c0,3.759,3.05,6.896,6.831,6.896c1.238,0,2.698-0.463,3.716-1.236l-4.024-4.045h2.432
		L566.42,185.905z"/>
	<path fill="#264659" d="M574.124,182.875c0,1.24-0.046,2.654,0.727,3.715c0.732,1.016,2.146,1.591,3.363,1.591
		c1.193,0,2.498-0.554,3.273-1.479c0.884-1.063,0.817-2.522,0.817-3.827v-9.927h1.855v10.434c0,1.812-0.13,3.254-1.456,4.623
		c-1.154,1.237-2.81,1.899-4.49,1.899c-1.571,0-3.185-0.594-4.311-1.702c-1.463-1.393-1.639-2.917-1.639-4.82v-10.434h1.859V182.875
		z"/>
	<path fill="#264659" d="M587.13,172.949h8.644v1.722h-6.788v4.957h6.588v1.723h-6.588v6.545h6.788v1.723h-8.644V172.949z"/>
</g>
</svg>
